<?xml version="1.0" encoding="iso-8859-1"?>
<!-- Uploaded to: SVG Repo, www.svgrepo.com, Generator: SVG Repo Mixer Tools -->
<svg version="1.1" id="Layer_1" xmlns="http://www.w3.org/2000/svg" xmlns:xlink="http://www.w3.org/1999/xlink" 
	 viewBox="0 0 512 512" xml:space="preserve">
<rect x="4" y="65.048" style="fill:#FFFFFF;" width="504" height="381.904"/>
<g>
	<path style="fill:#AAC1CE;" d="M504,69.048v373.904H8V69.048H504 M512,61.048H0v389.904h512V61.048z"/>
	<rect x="2.992" y="126.84" style="fill:#AAC1CE;" width="505.84" height="8"/>
</g>
<circle style="fill:#E04F5F;" cx="48.08" cy="98.504" r="12.584"/>
<circle style="fill:#25B6D2;" cx="89.312" cy="98.504" r="12.584"/>
<circle style="fill:#32BEA6;" cx="130.568" cy="98.504" r="12.584"/>
<g>
	<path style="fill:#415E72;" d="M173.488,247.544c6.536-0.992,13.144-1.44,19.76-1.344c6.984-0.56,13.952,1.264,19.768,5.176
		c4.472,3.672,7.024,9.184,6.912,14.968c0.224,5.72-1.928,11.28-5.952,15.352c-5.88,4.864-13.392,7.304-21.008,6.816
		c-1.672,0.016-3.336-0.08-4.992-0.288v23.128h-14.488V247.544z M188,276.896c1.608,0.304,3.248,0.44,4.888,0.384
		c7.776,0,12.568-3.928,12.568-10.552c0-5.944-4.128-9.496-11.416-9.496c-2.032-0.056-4.064,0.136-6.048,0.576L188,276.896z"/>
	<path style="fill:#415E72;" d="M243.944,246.672v24.848H268v-24.848h14.584v64.664H268v-27.048h-24.08v27.056h-14.656v-64.672
		H243.944z"/>
	<path style="fill:#415E72;" d="M295.4,247.544c6.544-0.992,13.152-1.44,19.768-1.344c6.984-0.56,13.944,1.264,19.76,5.176
		c4.472,3.672,7.024,9.184,6.912,14.968c0.232,5.72-1.928,11.28-5.952,15.352c-5.88,4.864-13.392,7.304-21.008,6.816
		c-1.672,0.016-3.336-0.08-4.992-0.288v23.128H295.4V247.544z M309.888,276.896c1.608,0.304,3.248,0.44,4.888,0.384
		c7.776,0,12.568-3.928,12.568-10.552c0-5.944-4.128-9.496-11.416-9.496c-2.032-0.056-4.064,0.136-6.048,0.576L309.888,276.896z"/>
</g>
</svg>